<svg width="46" height="100" viewBox="0 0 46 100" fill="none" xmlns="http://www.w3.org/2000/svg">
<path d="M15.5 100V72.5H0.5L13.25 31.5C13.9167 29.4167 15.1667 27.8125 17 26.6875C18.8333 25.5625 20.8333 25 23 25C25.1667 25 27.1667 25.5625 29 26.6875C30.8333 27.8125 32.0833 29.4167 32.75 31.5L45.5 72.5H30.5V100H15.5ZM23.01 18.25C20.5033 18.25 18.3542 17.3575 16.5625 15.5725C14.7708 13.7874 13.875 11.6416 13.875 9.135C13.875 6.62833 14.7675 4.47917 16.5525 2.6875C18.3376 0.895832 20.4834 -9.53674e-07 22.99 -9.53674e-07C25.4967 -9.53674e-07 27.6458 0.892497 29.4375 2.6775C31.2292 4.46258 32.125 6.60841 32.125 9.115C32.125 11.6217 31.2325 13.7708 29.4475 15.5625C27.6624 17.3542 25.5166 18.25 23.01 18.25Z" fill="#D71616"/>
</svg>
