<svg width="100" height="80" viewBox="0 0 100 80" fill="none" xmlns="http://www.w3.org/2000/svg">
<path d="M0 80V68.75H10V7.5C10 5.4375 10.7344 3.67188 12.2031 2.20312C13.6719 0.734375 15.4375 0 17.5 0H95V7.5H17.5V68.75H47.5V80H0ZM58.75 80C57.6875 80 56.7969 79.6406 56.0781 78.9219C55.3594 78.2031 55 77.3125 55 76.25V18.75C55 17.6875 55.3594 16.7969 56.0781 16.0781C56.7969 15.3594 57.6875 15 58.75 15H96.25C97.3125 15 98.2031 15.3594 98.9219 16.0781C99.6406 16.7969 100 17.6875 100 18.75V76.25C100 77.3125 99.6406 78.2031 98.9219 78.9219C98.2031 79.6406 97.3125 80 96.25 80H58.75ZM62.5 68.75H92.5V22.5H62.5V68.75Z" fill="#704141"/>
</svg>
