<svg width="120" height="120" viewBox="0 0 120 120" fill="none" xmlns="http://www.w3.org/2000/svg">
<path d="M0 120V106.75C0 100.322 1.72917 95.0902 5.1875 91.054C8.64583 87.018 13.1823 85 18.797 85C19.8108 85 20.7855 85.0417 21.7214 85.125C22.6571 85.2083 23.5833 85.3877 24.5 85.663C23.8333 88.5543 23.3333 91.4847 23 94.4542C22.6667 97.4237 22.5 100.522 22.5 103.75V120H0ZM30 120V103.75C30 98.4167 30.7292 93.5417 32.1875 89.125C33.6458 84.7083 35.7083 80.8333 38.375 77.5C41.0417 74.1667 44.2292 71.6667 47.9375 70C51.6458 68.3333 55.6667 67.5 60 67.5C64.4167 67.5 68.4792 68.3333 72.1875 70C75.8958 71.6667 79.0833 74.1667 81.75 77.5C84.4167 80.8333 86.4583 84.7083 87.875 89.125C89.2917 93.5417 90 98.4167 90 103.75V120H30ZM97.5 120V103.75C97.5 100.44 97.3542 97.3206 97.0625 94.3923C96.7708 91.4641 96.2917 88.5606 95.625 85.6817C96.5417 85.3939 97.4655 85.2083 98.3964 85.125C99.3274 85.0417 100.279 85 101.25 85C106.875 85 111.406 86.9807 114.844 90.942C118.281 94.9033 120 100.173 120 106.75V120H97.5ZM37.5 105H82.5V103.5C82.5 97.3333 80.3958 92.2917 76.1875 88.375C71.9792 84.4583 66.5833 82.5 60 82.5C53.4167 82.5 48.0208 84.4583 43.8125 88.375C39.6042 92.2917 37.5 97.4167 37.5 103.75V105ZM18.6959 77.5C16.3153 77.5 14.2708 75.7865 12.5625 72.3595C10.8542 68.9323 10 64.8125 10 60C10 55.1667 10.8567 51.0417 12.5702 47.625C14.2838 44.2083 16.3438 42.5 18.75 42.5C21.1667 42.5 23.2292 44.2083 24.9375 47.625C26.6458 51.0417 27.5 55.2028 27.5 60.1083C27.5 64.8694 26.6458 68.9583 24.9375 72.375C23.2292 75.7917 21.1486 77.5 18.6959 77.5ZM101.196 77.5C98.8153 77.5 96.7708 75.7865 95.0625 72.3595C93.3542 68.9323 92.5 64.8125 92.5 60C92.5 55.1667 93.3568 51.0417 95.0703 47.625C96.7838 44.2083 98.8438 42.5 101.25 42.5C103.667 42.5 105.729 44.2083 107.438 47.625C109.146 51.0417 110 55.2028 110 60.1083C110 64.8694 109.146 68.9583 107.438 72.375C105.729 75.7917 103.649 77.5 101.196 77.5ZM60 60C55.8333 60 52.2917 57.0833 49.375 51.25C46.4583 45.4167 45 38.3333 45 30C45 21.5 46.4583 14.375 49.375 8.625C52.2917 2.875 55.8333 0 60 0C64.25 0 67.8125 2.875 70.6875 8.625C73.5625 14.375 75 21.5 75 30C75 38.3333 73.5625 45.4167 70.6875 51.25C67.8125 57.0833 64.25 60 60 60ZM60.0439 45C62.1813 45 63.9583 43.5541 65.375 40.6622C66.7917 37.7704 67.5 34.1871 67.5 29.9122C67.5 25.6374 66.7855 22.0833 65.3564 19.25C63.9273 16.4167 62.1565 15 60.0439 15C57.9313 15 56.1458 16.4291 54.6875 19.2872C53.2292 22.1454 52.5 25.6871 52.5 29.9122C52.5 34.1374 53.223 37.7083 54.6689 40.625C56.1148 43.5417 57.9065 45 60.0439 45Z" fill="#383838"/>
</svg>
